<svg xmlns="http://www.w3.org/2000/svg" viewBox="0 0 1040 620" width="1040" height="620">
<rect width="1040" height="620" fill="#f4f1ea"/>
<text x="24" y="24" font-family="Yu Gothic, Meiryo, sans-serif" font-size="15" fill="#1c1c1c">0 関係図</text>
<text x="24" y="42" font-family="Yu Gothic, Meiryo, sans-serif" font-size="12" fill="#555">0-e025  神室町に戻ると言い、今日限り兄弟の縁を切る。錦に関わるな</text>
<text x="180" y="18" text-anchor="middle" font-family="Yu Gothic, Meiryo, sans-serif" font-size="11" fill="#888">風間／桐生</text>
<text x="520" y="18" text-anchor="middle" font-family="Yu Gothic, Meiryo, sans-serif" font-size="11" fill="#888">堂島組</text>
<text x="880" y="18" text-anchor="middle" font-family="Yu Gothic, Meiryo, sans-serif" font-size="11" fill="#888">蒼天堀</text>
<text x="260" y="478" text-anchor="middle" font-family="Yu Gothic, Meiryo, sans-serif" font-size="11" fill="#888">立華不動産</text>
<line x1="180" y1="230" x2="180" y2="370" stroke="#a33b3b" stroke-width="2.4"/>
<text x="198.0" y="296.0" text-anchor="middle" font-family="Yu Gothic, Meiryo, sans-serif" font-size="11" fill="#a33b3b">縁を切る（表）</text>
<line x1="180" y1="230" x2="420" y2="210" stroke="#a33b3b" stroke-width="2.4"/>
<text x="298.5" y="202.0" text-anchor="middle" font-family="Yu Gothic, Meiryo, sans-serif" font-size="11" fill="#a33b3b">協力拒否</text>
<line x1="520" y1="70" x2="420" y2="210" stroke="#8a6a22" stroke-width="1.8" stroke-dasharray='6 4'/>
<text x="484.6" y="144.1" text-anchor="middle" font-family="Yu Gothic, Meiryo, sans-serif" font-size="11" fill="#8a6a22">組織上下</text>
<line x1="180" y1="90" x2="180" y2="230" stroke="#2f6f4e" stroke-width="1.8"/>
<text x="198.0" y="156.0" text-anchor="middle" font-family="Yu Gothic, Meiryo, sans-serif" font-size="11" fill="#2f6f4e">背中を見て育った</text>
<line x1="520" y1="70" x2="180" y2="230" stroke="#a33b3b" stroke-width="2.4"/>
<text x="342.3" y="133.3" text-anchor="middle" font-family="Yu Gothic, Meiryo, sans-serif" font-size="11" fill="#a33b3b">破門を請う</text>
<line x1="180" y1="230" x2="180" y2="520" stroke="#2f6f4e" stroke-width="1.8"/>
<text x="198.0" y="371.0" text-anchor="middle" font-family="Yu Gothic, Meiryo, sans-serif" font-size="11" fill="#2f6f4e">接触</text>
<line x1="180" y1="90" x2="180" y2="520" stroke="#2f6f4e" stroke-width="1.8"/>
<text x="162.0" y="301.0" text-anchor="middle" font-family="Yu Gothic, Meiryo, sans-serif" font-size="11" fill="#2f6f4e">桐生を推薦</text>
<line x1="880" y1="230" x2="880" y2="90" stroke="#8a6a22" stroke-width="1.8" stroke-dasharray='6 4'/>
<text x="862.0" y="156.0" text-anchor="middle" font-family="Yu Gothic, Meiryo, sans-serif" font-size="11" fill="#8a6a22">組織上下</text>
<line x1="880" y1="230" x2="340" y2="520" stroke="#8a6a22" stroke-width="1.8" stroke-dasharray='6 4'/>
<text x="601.5" y="358.7" text-anchor="middle" font-family="Yu Gothic, Meiryo, sans-serif" font-size="11" fill="#8a6a22">接触</text>
<line x1="180" y1="370" x2="40" y2="370" stroke="#2f6f4e" stroke-width="1.8"/>
<text x="110.0" y="352.0" text-anchor="middle" font-family="Yu Gothic, Meiryo, sans-serif" font-size="11" fill="#2f6f4e">店の顔</text>
<rect x="466" y="52" width="108" height="36" rx="3" fill="#ece7dc" stroke="#222"/>
<text x="520" y="74" text-anchor="middle" font-family="Yu Gothic, Meiryo, sans-serif" font-size="13" fill="#1c1c1c">堂島宗兵</text>
<rect x="826" y="72" width="108" height="36" rx="3" fill="#ece7dc" stroke="#222"/>
<text x="880" y="94" text-anchor="middle" font-family="Yu Gothic, Meiryo, sans-serif" font-size="13" fill="#1c1c1c">佐川司</text>
<rect x="126" y="72" width="108" height="36" rx="3" fill="#ece7dc" stroke="#222"/>
<text x="180" y="94" text-anchor="middle" font-family="Yu Gothic, Meiryo, sans-serif" font-size="13" fill="#1c1c1c">風間新太郎</text>
<rect x="366" y="192" width="108" height="36" rx="3" fill="#ece7dc" stroke="#222"/>
<text x="420" y="214" text-anchor="middle" font-family="Yu Gothic, Meiryo, sans-serif" font-size="13" fill="#1c1c1c">久瀬大作</text>
<rect x="126" y="212" width="108" height="36" rx="3" fill="#ece7dc" stroke="#222"/>
<text x="180" y="234" text-anchor="middle" font-family="Yu Gothic, Meiryo, sans-serif" font-size="13" fill="#1c1c1c">桐生一馬</text>
<rect x="826" y="212" width="108" height="36" rx="3" fill="#ece7dc" stroke="#222"/>
<text x="880" y="234" text-anchor="middle" font-family="Yu Gothic, Meiryo, sans-serif" font-size="13" fill="#1c1c1c">真島吾朗</text>
<rect x="-14" y="352" width="108" height="36" rx="3" fill="#ece7dc" stroke="#222"/>
<text x="40" y="374" text-anchor="middle" font-family="Yu Gothic, Meiryo, sans-serif" font-size="13" fill="#1c1c1c">麗奈</text>
<rect x="126" y="352" width="108" height="36" rx="3" fill="#ece7dc" stroke="#222"/>
<text x="180" y="374" text-anchor="middle" font-family="Yu Gothic, Meiryo, sans-serif" font-size="13" fill="#1c1c1c">錦山彰</text>
<rect x="126" y="502" width="108" height="36" rx="3" fill="#ece7dc" stroke="#222"/>
<text x="180" y="524" text-anchor="middle" font-family="Yu Gothic, Meiryo, sans-serif" font-size="13" fill="#1c1c1c">立華鉄</text>
<rect x="286" y="502" width="108" height="36" rx="3" fill="#ece7dc" stroke="#222"/>
<text x="340" y="524" text-anchor="middle" font-family="Yu Gothic, Meiryo, sans-serif" font-size="13" fill="#1c1c1c">牧村マコト</text>
<text x="800" y="600" font-family="Yu Gothic, Meiryo, sans-serif" font-size="11" fill="#777">緑 plus　赤 minus　破線 mixed/death</text>
</svg>